# xmcd
#
# Track frame offsets: 
#        150
#        29604
#        51074
#        67793
#        96511
#        132231
#        155029
#        186767
#        213501
#
# Disc length: 3216 seconds
#
# Revision: 0
# Processed by: cddbd v1.5.2PL0 Copyright (c) Steve Scherf et al.
# Submitted via: ExactAudioCopy v0.99pb4
#
DISCID=800c8e09
DTITLE=Rooster - Live on Bourbon St
DYEAR=1900
DGENRE=Blues
TTITLE0=Medley
TTITLE1=Believe You Love Me
TTITLE2=Bring It On Home
TTITLE3=The Cell Phone Blues
TTITLE4=Thrill Is Gone
TTITLE5=Chain Of Fools
TTITLE6=Down Home Blues
TTITLE7=Mustang Sally
TTITLE8=Sweet Home Chicago
EXTD=
EXTT0=
EXTT1=
EXTT2=
EXTT3=
EXTT4=
EXTT5=
EXTT6=
EXTT7=
EXTT8=
PLAYORDER=
